# xmcd CD database file
#
# Track frame offsets:
#	150
#	19572
#	37778
#	60681
#	72317
#	89653
#	107525
#	118417
#	135333
#	155474
#	169394
#	182304
#	194230
#	210599
#	227796
#	245981
#	257125
#	274353
#	288326
#	301157
#
# Disc length: 4201 seconds
#
# Revision: 0
# Processed by: cddbd v1.5PL3 Copyright (c) Steve Scherf et al.
# Submitted via: CDex 1.51
#
DISCID=28106714
DTITLE=Alan Jackson - Very Best Of
DYEAR=2004
DGENRE=Country
TTITLE0=Gone Country
TTITLE1=Drive (For Daddy Gene)
TTITLE2=Where Were You (When The World Stopped Turning)
TTITLE3=WWW.Memory
TTITLE4=It's Five O'Clock Somewhere (Alan Jackson And Jimmy Buffett)
TTITLE5=Chattahoochee (Extended Mix)
TTITLE6=She's Got The Rhythm (And I Got The Blues)
TTITLE7=Midnight In Montgomery
TTITLE8=Little Man
TTITLE9=Pop A Top
TTITLE10=Don't Rock The Jukebox
TTITLE11=Little Bitty
TTITLE12=Here In The Real World
TTITLE13=Livin' On Love
TTITLE14=Who's Cheatin' Who
TTITLE15=Tall, Tall Trees
TTITLE16=Right On The Money
TTITLE17=Chasin' That Neon Rainbow
TTITLE18=It Must Be Love
TTITLE19=Everything I Love
EXTD=YEAR: 2004
EXTT0=
EXTT1=
EXTT2=
EXTT3=
EXTT4=
EXTT5=
EXTT6=
EXTT7=
EXTT8=
EXTT9=
EXTT10=
EXTT11=
EXTT12=
EXTT13=
EXTT14=
EXTT15=
EXTT16=
EXTT17=
EXTT18=
EXTT19=
PLAYORDER=
